{"title":"Le soleil des voyous, dvdrip.avi","uid":7847127,"size":716351488,"categoryP":"video","categoryS":"movies","magnet":"?xt=urn:btih:b4f870e53e745168ee0789af750584c04c5dd964&amp;dn=Le+soleil+des+voyous%2C+dvdrip.avi&amp;tr=udp%3A%2F%2Ftracker.openbittorrent.com%3A80&amp;tr=udp%3A%2F%2Fopen.demonii.com%3A1337&amp;tr=udp%3A%2F%2Ftracker.coppersurfer.tk%3A6969&amp;tr=udp%3A%2F%2Fexodus.desync.com%3A6969","seeders":0,"leechers":0,"uploader":"Bonie75","files":-1,"time":1353459432,"description":"FrancaisLe soleil des voyous, dvdrip.avi\nFormat                                   : AVI\nFormat/Info                              : Audio Video Interleave\nFile size                                : 683 MiB\nDuration                                 : 1h 37mn\nOverall bit rate                         : 980 Kbps\nWriting library                          : VirtualDub build 13870/release\n\nVideo\nID                                       : 0\nFormat                                   : MPEG-4 Visual\nCodec ID                                 : DIV3\nCodec ID/Hint                            : DivX 3 Low\nDuration                                 : 1h 37mn\nBit rate                                 : 907 Kbps\nWidth                                    : 512 pixels\nHeight                                   : 232 pixels\nDisplay aspect ratio                     : 2.2:1\nFrame rate                               : 25.000 fps\nColor space                              : YUV\nChroma subsampling                       : 4:2:0\nBit depth                                : 8 bits\nCompression mode                         : Lossy\nBits/(Pixel*Frame)                       : 0.305\nStream size                              : 632 MiB (92%)\n\nAudio\nID                                       : 1\nFormat                                   : MPEG Audio\nFormat version                           : Version 1\nFormat profile                           : Layer 3\nCodec ID                                 : 55\nCodec ID/Hint                            : MP3\nDuration                                 : 1h 37mn\nBit rate mode                            : Constant\nBit rate                                 : 64.0 Kbps\nChannel(s)                               : 1 channel\nSampling rate                            : 44.1 KHz\nCompression mode                         : Lossy\nStream size                              : 44.6 MiB (7%)\nAlignment                                : Split accross interleaves\nInterleave, duration                     : 40 ms (1.00 video frame)\nInterleave, preload duration             : 500 ms\nWriting library                          : LAME3.92 \nEncoding settings                        : -m m -V 4 -q 2 -lowpass 13.7 -b 64\n","torrent":{"xt":"urn:btih:b4f870e53e745168ee0789af750584c04c5dd964","amp;dn":"Le+soleil+des+voyous%2C+dvdrip.avi","amp;tr":["udp%3A%2F%2Ftracker.openbittorrent.com%3A80","udp%3A%2F%2Fopen.demonii.com%3A1337","udp%3A%2F%2Ftracker.coppersurfer.tk%3A6969","udp%3A%2F%2Fexodus.desync.com%3A6969"],"infoHash":"b4f870e53e745168ee0789af750584c04c5dd964","infoHashBuffer":{"type":"Buffer","data":[180,248,112,229,62,116,81,104,238,7,137,175,117,5,132,192,76,93,217,100]},"announce":[],"urlList":[]}}